<?xml version="1.0" encoding="UTF-8" standalone="no"?>
<!-- Generator: Adobe Illustrator 19.0.0, SVG Export Plug-In . SVG Version: 6.00 Build 0)  -->

<svg
   xmlns:dc="http://purl.org/dc/elements/1.1/"
   xmlns:cc="http://creativecommons.org/ns#"
   xmlns:rdf="http://www.w3.org/1999/02/22-rdf-syntax-ns#"
   xmlns:svg="http://www.w3.org/2000/svg"
   xmlns="http://www.w3.org/2000/svg"
   xmlns:sodipodi="http://sodipodi.sourceforge.net/DTD/sodipodi-0.dtd"
   xmlns:inkscape="http://www.inkscape.org/namespaces/inkscape"
   version="1.1"
   id="Capa_1"
   x="0px"
   y="0px"
   viewBox="0 0 490.4 490.4"
   style="enable-background:new 0 0 490.4 490.4;"
   xml:space="preserve"
   sodipodi:docname="prev_hovered.svg"
   inkscape:version="0.92.4 (5da689c313, 2019-01-14)"><metadata
   id="metadata1581"><rdf:RDF><cc:Work
       rdf:about=""><dc:format>image/svg+xml</dc:format><dc:type
         rdf:resource="http://purl.org/dc/dcmitype/StillImage" /><dc:title></dc:title></cc:Work></rdf:RDF></metadata><defs
   id="defs1579" /><sodipodi:namedview
   pagecolor="#ffffff"
   bordercolor="#666666"
   borderopacity="1"
   objecttolerance="10"
   gridtolerance="10"
   guidetolerance="10"
   inkscape:pageopacity="0"
   inkscape:pageshadow="2"
   inkscape:window-width="730"
   inkscape:window-height="480"
   id="namedview1577"
   showgrid="false"
   inkscape:zoom="0.48123981"
   inkscape:cx="245.2"
   inkscape:cy="245.2"
   inkscape:window-x="2445"
   inkscape:window-y="305"
   inkscape:window-maximized="0"
   inkscape:current-layer="g1542" />
<g
   id="g1544"
   style="fill:#c9c9c9;fill-opacity:1">
	<g
   id="g1542"
   style="fill:#c9c9c9;fill-opacity:1">
		<path
   d="M245.2,490.4c135.2,0,245.2-110,245.2-245.2S380.4,0,245.2,0S0,110,0,245.2C0,380.4,110,490.4,245.2,490.4z M245.2,24.5    c121.7,0,220.7,99,220.7,220.7s-99,220.7-220.7,220.7s-220.7-99-220.7-220.7S123.5,24.5,245.2,24.5z"
   id="path1538"
   style="fill:#0c4e94;fill-opacity:1" />
		<path
   d="M198.9,322.8c2.4,2.4,5.5,3.6,8.7,3.6s6.3-1.2,8.7-3.6c4.8-4.8,4.8-12.5,0-17.3l-48-48h183.4c6.8,0,12.3-5.5,12.3-12.3    s-5.5-12.3-12.3-12.3H168.3l48-48c4.8-4.8,4.8-12.5,0-17.3s-12.5-4.8-17.3,0l-68.9,68.9c-4.8,4.8-4.8,12.5,0,17.3L198.9,322.8z"
   id="path1540"
   style="fill:#ffcb08;fill-opacity:1" />
	</g>
</g>
<g
   id="g1546">
</g>
<g
   id="g1548">
</g>
<g
   id="g1550">
</g>
<g
   id="g1552">
</g>
<g
   id="g1554">
</g>
<g
   id="g1556">
</g>
<g
   id="g1558">
</g>
<g
   id="g1560">
</g>
<g
   id="g1562">
</g>
<g
   id="g1564">
</g>
<g
   id="g1566">
</g>
<g
   id="g1568">
</g>
<g
   id="g1570">
</g>
<g
   id="g1572">
</g>
<g
   id="g1574">
</g>
</svg>